<svg width="70" height="70" viewBox="0 0 70 70" fill="none" xmlns="http://www.w3.org/2000/svg">
<path d="M8 0.5H62C66.1421 0.5 69.5 3.85786 69.5 8V62C69.5 66.1421 66.1421 69.5 62 69.5H8C3.85786 69.5 0.5 66.1421 0.5 62V8C0.5 3.85786 3.85786 0.5 8 0.5Z" fill="url(#paint0_linear_184_491)"/>
<path d="M8 0.5H62C66.1421 0.5 69.5 3.85786 69.5 8V62C69.5 66.1421 66.1421 69.5 62 69.5H8C3.85786 69.5 0.5 66.1421 0.5 62V8C0.5 3.85786 3.85786 0.5 8 0.5Z" fill="url(#paint1_linear_184_491)" fill-opacity="0.2"/>
<path d="M8 0.5H62C66.1421 0.5 69.5 3.85786 69.5 8V62C69.5 66.1421 66.1421 69.5 62 69.5H8C3.85786 69.5 0.5 66.1421 0.5 62V8C0.5 3.85786 3.85786 0.5 8 0.5Z" stroke="url(#paint2_linear_184_491)"/>
<path d="M8 0.5H62C66.1421 0.5 69.5 3.85786 69.5 8V62C69.5 66.1421 66.1421 69.5 62 69.5H8C3.85786 69.5 0.5 66.1421 0.5 62V8C0.5 3.85786 3.85786 0.5 8 0.5Z" stroke="url(#paint3_linear_184_491)"/>
<path d="M24.383 44.879C23.4304 43.684 22.6951 42.3613 22.177 40.9108C21.6589 39.46 21.3999 37.9189 21.3999 36.2874C21.3999 32.465 22.72 29.2209 25.3602 26.5551C28.0007 23.8895 31.2139 22.5567 34.9999 22.5567H36.2523L33.3621 19.6387L34.9851 18L40.6641 23.7336L34.9851 29.4672L33.3232 27.7893L36.1746 24.9105H34.9999C31.8854 24.9105 29.2286 26.0205 27.0295 28.2404C24.8307 30.4606 23.7313 33.1429 23.7313 36.2874C23.7313 37.6011 23.9351 38.844 24.3426 40.0159C24.75 41.1879 25.3224 42.2496 26.0597 43.2011L24.383 44.879ZM33.6551 44.6769C33.6051 43.9846 33.3868 43.3418 33.0003 42.7483C32.6138 42.1549 32.1943 41.5579 31.7417 40.9575C31.2894 40.357 30.8825 39.7353 30.5208 39.0924C30.1592 38.4496 29.9784 37.7459 29.9784 36.9814C29.9784 35.5853 30.4695 34.3914 31.4519 33.3996C32.4344 32.4076 33.6171 31.9116 34.9999 31.9116C36.3827 31.9116 37.5654 32.4076 38.5479 33.3996C39.5303 34.3914 40.0214 35.5853 40.0214 36.9814C40.0214 37.7459 39.8406 38.4471 39.479 39.085C39.1173 39.7226 38.7104 40.3443 38.2581 40.95C37.8055 41.5555 37.386 42.1549 36.9995 42.7483C36.613 43.3418 36.3947 43.9846 36.3447 44.6769H33.6551ZM33.6846 48.6V46.5478H36.3152V48.6H33.6846ZM45.6168 44.879L43.9402 43.2011C44.6774 42.2496 45.2498 41.1879 45.6573 40.0159C46.0647 38.844 46.2685 37.6011 46.2685 36.2874C46.2685 34.5814 45.9298 32.992 45.2524 31.5193C44.5747 30.0466 43.6391 28.7933 42.4457 27.7594L44.1072 26.0815C45.5001 27.349 46.5972 28.8542 47.3984 30.5974C48.1994 32.3408 48.5999 34.2375 48.5999 36.2874C48.5999 37.9189 48.3409 39.46 47.8228 40.9108C47.3047 42.3613 46.5694 43.684 45.6168 44.879Z" fill="url(#paint4_linear_184_491)"/>
<defs>
<linearGradient id="paint0_linear_184_491" x1="35" y1="0" x2="35" y2="70" gradientUnits="userSpaceOnUse">
<stop stop-color="#242424"/>
<stop offset="1" stop-color="#242424" stop-opacity="0"/>
</linearGradient>
<linearGradient id="paint1_linear_184_491" x1="162.273" y1="-69.6023" x2="6.57852e-06" y2="70" gradientUnits="userSpaceOnUse">
<stop offset="0.224072" stop-color="#EAA843"/>
<stop offset="0.687143" stop-color="#EAA843" stop-opacity="0"/>
</linearGradient>
<linearGradient id="paint2_linear_184_491" x1="35" y1="0" x2="35" y2="70" gradientUnits="userSpaceOnUse">
<stop stop-color="#2E2E2E"/>
<stop offset="1" stop-color="#2E2E2E" stop-opacity="0"/>
</linearGradient>
<linearGradient id="paint3_linear_184_491" x1="-1.46802e-06" y1="41.3636" x2="89.7836" y2="9.04491" gradientUnits="userSpaceOnUse">
<stop stop-color="#EAA843"/>
<stop offset="0.436057" stop-color="#F929D5"/>
<stop offset="0.769785" stop-color="#050AB3"/>
<stop offset="1" stop-color="#09EEFD"/>
</linearGradient>
<linearGradient id="paint4_linear_184_491" x1="-19.7637" y1="63.6866" x2="90.4962" y2="26.5337" gradientUnits="userSpaceOnUse">
<stop stop-color="#EAA843"/>
<stop offset="0.436057" stop-color="#F929D5"/>
<stop offset="0.733734" stop-color="#09EEFD"/>
<stop offset="1" stop-color="#050AB3"/>
</linearGradient>
</defs>
</svg>
