<svg width="70" height="71" viewBox="0 0 70 71" fill="none" xmlns="http://www.w3.org/2000/svg">
<rect x="0.5" y="1" width="69" height="69" rx="7.5" fill="url(#paint0_linear_317_2)"/>
<rect x="0.5" y="1" width="69" height="69" rx="7.5" fill="url(#paint1_linear_317_2)" fill-opacity="0.2"/>
<rect x="0.5" y="1" width="69" height="69" rx="7.5" stroke="url(#paint2_linear_317_2)"/>
<rect x="0.5" y="1" width="69" height="69" rx="7.5" stroke="url(#paint3_linear_317_2)"/>
<path d="M26.854 33.7292H34.1282V31.6042H26.854V33.7292ZM24.1025 46.125C23.3868 46.125 22.7811 45.8771 22.2853 45.3812C21.7894 44.8854 21.5415 44.2797 21.5415 43.564V27.436C21.5415 26.7203 21.7894 26.1146 22.2853 25.6187C22.7811 25.1229 23.3868 24.875 24.1025 24.875H45.8972C46.5111 24.875 47.0455 25.0693 47.5005 25.458C47.9555 25.8466 48.2411 26.3333 48.3572 26.9182C48.0467 26.793 47.7203 26.7027 47.378 26.6472C47.0356 26.5918 46.6873 26.564 46.3332 26.564C44.5007 26.564 42.9438 27.2047 41.6624 28.4861C40.381 29.7675 39.7404 31.3245 39.7404 33.1572C39.7404 33.6221 39.783 34.068 39.8682 34.4949C39.9537 34.9215 40.0772 35.3292 40.2387 35.7178H34.346V37.2708H26.854V39.3958H34.346V40.758C33.4852 41.3683 32.8204 42.1384 32.3517 43.0682C31.8833 43.9982 31.6491 45.0172 31.6491 46.125H24.1025ZM38.2419 47.7049C38.6978 47.7049 39.0842 47.5465 39.4011 47.2296C39.7179 46.9128 39.8764 46.5264 39.8764 46.0705C39.8764 45.6145 39.7179 45.2281 39.4011 44.9113C39.0842 44.5944 38.6978 44.436 38.2419 44.436C37.7859 44.436 37.3996 44.5944 37.0827 44.9113C36.7658 45.2281 36.6074 45.6145 36.6074 46.0705C36.6074 46.5264 36.7658 46.9128 37.0827 47.2296C37.3996 47.5465 37.7859 47.7049 38.2419 47.7049ZM46.3332 34.7917C46.7891 34.7917 47.1755 34.6332 47.4924 34.3164C47.8092 33.9995 47.9677 33.6131 47.9677 33.1572C47.9677 32.7013 47.8092 32.3149 47.4924 31.998C47.1755 31.6809 46.7891 31.5224 46.3332 31.5224C45.8772 31.5224 45.4908 31.6809 45.174 31.998C44.8571 32.3149 44.6987 32.7013 44.6987 33.1572C44.6987 33.6131 44.8571 33.9995 45.174 34.3164C45.4908 34.6332 45.8772 34.7917 46.3332 34.7917ZM38.2419 49.8299C37.1976 49.8299 36.3099 49.4644 35.5789 48.7334C34.8479 48.0024 34.4824 47.1148 34.4824 46.0705C34.4824 45.2131 34.7366 44.4549 35.2449 43.7956C35.7535 43.1364 36.3983 42.6969 37.1794 42.4771V38.5511H45.2707V36.7506C44.4896 36.5307 43.8449 36.0912 43.3366 35.432C42.828 34.7725 42.5737 34.0143 42.5737 33.1572C42.5737 32.1129 42.9392 31.2252 43.6702 30.4942C44.4012 29.763 45.2889 29.3974 46.3332 29.3974C47.3775 29.3974 48.2651 29.763 48.9961 30.4942C49.7271 31.2252 50.0927 32.1129 50.0927 33.1572C50.0927 34.0143 49.8384 34.7725 49.3298 35.432C48.8214 36.0912 48.1767 36.5307 47.3957 36.7506V40.6761H39.3044V42.4771C40.0854 42.6969 40.7301 43.1364 41.2385 43.7956C41.7471 44.4549 42.0014 45.2131 42.0014 46.0705C42.0014 47.1148 41.6359 48.0024 40.9049 48.7334C40.1739 49.4644 39.2862 49.8299 38.2419 49.8299Z" fill="url(#paint4_linear_317_2)"/>
<defs>
<linearGradient id="paint0_linear_317_2" x1="35" y1="0.5" x2="35" y2="70.5" gradientUnits="userSpaceOnUse">
<stop stop-color="#242424"/>
<stop offset="1" stop-color="#242424" stop-opacity="0"/>
</linearGradient>
<linearGradient id="paint1_linear_317_2" x1="162.273" y1="-69.1023" x2="6.57852e-06" y2="70.5" gradientUnits="userSpaceOnUse">
<stop offset="0.224072" stop-color="#EAA843"/>
<stop offset="0.687143" stop-color="#EAA843" stop-opacity="0"/>
</linearGradient>
<linearGradient id="paint2_linear_317_2" x1="35" y1="0.5" x2="35" y2="70.5" gradientUnits="userSpaceOnUse">
<stop stop-color="#2E2E2E"/>
<stop offset="1" stop-color="#2E2E2E" stop-opacity="0"/>
</linearGradient>
<linearGradient id="paint3_linear_317_2" x1="-1.46802e-06" y1="41.8636" x2="89.7836" y2="9.54491" gradientUnits="userSpaceOnUse">
<stop stop-color="#EAA843"/>
<stop offset="0.436057" stop-color="#F929D5"/>
<stop offset="0.769785" stop-color="#050AB3"/>
<stop offset="1" stop-color="#09EEFD"/>
</linearGradient>
<linearGradient id="paint4_linear_317_2" x1="-21.6668" y1="62.1333" x2="86.807" y2="15.0878" gradientUnits="userSpaceOnUse">
<stop stop-color="#EAA843"/>
<stop offset="0.436057" stop-color="#F929D5"/>
<stop offset="0.733734" stop-color="#09EEFD"/>
<stop offset="1" stop-color="#050AB3"/>
</linearGradient>
</defs>
</svg>
