<svg width="70" height="70" viewBox="0 0 70 70" fill="none" xmlns="http://www.w3.org/2000/svg">
<path d="M8 0.5H62C66.1421 0.5 69.5 3.85786 69.5 8V62C69.5 66.1421 66.1421 69.5 62 69.5H8C3.85786 69.5 0.5 66.1421 0.5 62V8C0.5 3.85786 3.85786 0.5 8 0.5Z" fill="url(#paint0_linear_184_482)"/>
<path d="M8 0.5H62C66.1421 0.5 69.5 3.85786 69.5 8V62C69.5 66.1421 66.1421 69.5 62 69.5H8C3.85786 69.5 0.5 66.1421 0.5 62V8C0.5 3.85786 3.85786 0.5 8 0.5Z" fill="url(#paint1_linear_184_482)" fill-opacity="0.2"/>
<path d="M8 0.5H62C66.1421 0.5 69.5 3.85786 69.5 8V62C69.5 66.1421 66.1421 69.5 62 69.5H8C3.85786 69.5 0.5 66.1421 0.5 62V8C0.5 3.85786 3.85786 0.5 8 0.5Z" stroke="url(#paint2_linear_184_482)"/>
<path d="M8 0.5H62C66.1421 0.5 69.5 3.85786 69.5 8V62C69.5 66.1421 66.1421 69.5 62 69.5H8C3.85786 69.5 0.5 66.1421 0.5 62V8C0.5 3.85786 3.85786 0.5 8 0.5Z" stroke="url(#paint3_linear_184_482)"/>
<path d="M28.0746 48.5999C27.7756 48.5999 27.4965 48.5284 27.2373 48.3855C26.9781 48.2425 26.7785 48.0316 26.6386 47.7526L23.2625 41.7301H25.728L27.479 45.1473H31.4051V43.5434H28.4493L26.6982 40.1262H22.3655L19.9105 35.8195C19.8498 35.6799 19.7996 35.5433 19.7598 35.4097C19.7201 35.2761 19.7002 35.1395 19.7002 34.9999C19.7002 34.9023 19.7703 34.6291 19.9105 34.1803L22.3655 29.8736H26.6982L28.4493 26.4564H31.4051V24.8525H27.479L25.728 28.2697H23.2625L26.6386 22.2472C26.7785 21.9682 26.9781 21.7573 27.2373 21.6143C27.4965 21.4714 27.7756 21.3999 28.0746 21.3999H32.3681C32.8377 21.3999 33.2294 21.5563 33.5432 21.8691C33.8574 22.1816 34.0145 22.5716 34.0145 23.0392V29.9434H31.2649L29.654 31.5478H34.0145V36.7434H30.2177L28.5017 33.3434H24.7158L23.1045 34.9478H27.5314L29.2479 38.3478H34.0145V46.9606C34.0145 47.4282 33.8574 47.8182 33.5432 48.1307C33.2294 48.4435 32.8377 48.5999 32.3681 48.5999H28.0746ZM38.4623 48.5999C37.5775 48.5999 36.825 48.2913 36.2049 47.6742C35.5851 47.0568 35.2752 46.3075 35.2752 45.4266C35.2752 44.778 35.445 44.2095 35.7847 43.7211C36.1246 43.233 36.5619 42.8577 37.0964 42.595V27.4048C36.5619 27.1421 36.1246 26.7668 35.7847 26.2787C35.445 25.7903 35.2752 25.2218 35.2752 24.5732C35.2752 23.6923 35.5851 22.943 36.2049 22.3256C36.825 21.7085 37.5775 21.3999 38.4623 21.3999C39.3471 21.3999 40.0996 21.7085 40.7197 22.3256C41.3395 22.943 41.6494 23.6923 41.6494 24.5732C41.6494 25.2218 41.4796 25.7903 41.14 26.2787C40.8 26.7668 40.3628 27.1421 39.8282 27.4048V32.3148L43.961 29.8423C43.8675 28.9079 44.1366 28.0953 44.7683 27.4048C45.3999 26.7145 46.1815 26.3693 47.1131 26.3693C47.9979 26.3693 48.7503 26.6779 49.3705 27.295C49.9903 27.9122 50.3002 28.6614 50.3002 29.5427C50.3002 30.4237 49.9903 31.1727 49.3705 31.7898C48.7503 32.407 47.9979 32.7156 47.1131 32.7156C46.7792 32.7156 46.4709 32.6663 46.1884 32.5678C45.9058 32.4689 45.6338 32.3323 45.3725 32.158L40.8613 34.878L45.7403 38.7313C45.9528 38.6174 46.1711 38.5365 46.3951 38.4888C46.6191 38.441 46.8584 38.4171 47.1131 38.4171C47.9979 38.4171 48.7503 38.7258 49.3705 39.3433C49.9903 39.9604 50.3002 40.7095 50.3002 41.5905C50.3002 42.4717 49.9903 43.221 49.3705 43.8381C48.7503 44.4552 47.9979 44.7638 47.1131 44.7638C46.0716 44.7638 45.241 44.3582 44.6212 43.547C44.0014 42.7356 43.8023 41.844 44.0238 40.8724L39.8282 37.5245V42.6404C40.3628 42.903 40.7924 43.2755 41.1172 43.7578C41.4417 44.2402 41.6039 44.7964 41.6039 45.4266C41.6039 46.3075 41.3016 47.0568 40.6969 47.6742C40.092 48.2913 39.3471 48.5999 38.4623 48.5999Z" fill="url(#paint4_linear_184_482)"/>
<defs>
<linearGradient id="paint0_linear_184_482" x1="35" y1="0" x2="35" y2="70" gradientUnits="userSpaceOnUse">
<stop stop-color="#242424"/>
<stop offset="1" stop-color="#242424" stop-opacity="0"/>
</linearGradient>
<linearGradient id="paint1_linear_184_482" x1="162.273" y1="-69.6023" x2="6.57852e-06" y2="70" gradientUnits="userSpaceOnUse">
<stop offset="0.224072" stop-color="#EAA843"/>
<stop offset="0.687143" stop-color="#EAA843" stop-opacity="0"/>
</linearGradient>
<linearGradient id="paint2_linear_184_482" x1="35" y1="0" x2="35" y2="70" gradientUnits="userSpaceOnUse">
<stop stop-color="#2E2E2E"/>
<stop offset="1" stop-color="#2E2E2E" stop-opacity="0"/>
</linearGradient>
<linearGradient id="paint3_linear_184_482" x1="-1.46802e-06" y1="41.3636" x2="89.7836" y2="9.04491" gradientUnits="userSpaceOnUse">
<stop stop-color="#EAA843"/>
<stop offset="0.436057" stop-color="#F929D5"/>
<stop offset="0.769785" stop-color="#050AB3"/>
<stop offset="1" stop-color="#09EEFD"/>
</linearGradient>
<linearGradient id="paint4_linear_184_482" x1="-26.6088" y1="62.0102" x2="90.262" y2="12.1693" gradientUnits="userSpaceOnUse">
<stop stop-color="#EAA843"/>
<stop offset="0.436057" stop-color="#F929D5"/>
<stop offset="0.733734" stop-color="#09EEFD"/>
<stop offset="1" stop-color="#050AB3"/>
</linearGradient>
</defs>
</svg>
